<svg width="157" height="56" viewBox="0 0 157 56" fill="none" xmlns="http://www.w3.org/2000/svg">
<path d="M7.99219 9.875L7.99219 44H3.67969L3.67969 9.875H7.99219ZM19.5 25.2266V28.9297H7.17187V25.2266H19.5ZM21.4453 9.875V13.5781L7.17187 13.5781V9.875L21.4453 9.875ZM44.4844 40.3203V44H30.3281V40.3203H44.4844ZM31.1016 9.875L31.1016 44H26.7891L26.7891 9.875H31.1016ZM67.9688 40.3203V44L53.1562 44V40.3203L67.9688 40.3203ZM53.9297 9.875V44H49.6172V9.875H53.9297ZM65.9766 24.5469V28.2266H53.1562V24.5469H65.9766ZM67.7344 9.875V13.5781H53.1562V9.875H67.7344ZM76.6172 9.875L83.0859 22.9531L89.5078 9.875H94.5234L85.6406 26.7734L94.7109 44H89.6484L83.0859 30.6641L76.5 44H71.4141L80.5078 26.7734L71.6016 9.875H76.6172ZM104.461 9.875V44H100.148V9.875H104.461ZM116.273 9.875V44H111.961V9.875L116.273 9.875ZM127.781 25.2266V28.9297H115.453V25.2266H127.781ZM129.727 9.875V13.5781H115.453V9.875H129.727Z" fill="#565656"/>
<path d="M136.992 9.875L143.953 27.0078L150.938 9.875H155.812L146.109 31.25V44H141.797V31.25L132.094 9.875H136.992Z" fill="#0496FF"/>
</svg>
